<svg xmlns="http://www.w3.org/2000/svg" xmlns:xlink="http://www.w3.org/1999/xlink" viewBox="0 0 1340 904" xmlns:v="https://vecta.io/nano"><style><![CDATA[.Z{stroke-miterlimit:10}.a{stroke:#000}.b{fill:none}.c{fill:#fff}.d{clip-path:url(#C)}]]></style><ellipse cx="649.9" cy="461.5" rx="312.1" ry="307.8" fill="#f2f6ff"/><ellipse cx="648.5" cy="459" rx="372.4" ry="367.3" class="a b"/><path d="M599 181.4s21.8-38.4 66.3-28.2c18.4 4.2 33.6 17 41.9 34 6.8 13.9 18.3 32.4 34.9 42.9 11.2 7 18.5 18.9 19 32.1.3 8 .1 18.5-.9 32.1-1.1 13.8 2.8 27.7 11.1 38.8 4.4 5.9 9.9 16.5 16.2 17.4 16 2.4-11.3 22.4-38.1 16.9-5-1-10.1-1.3-15.2-.8-12.7 1.3-39.6 5.2-53.5-26-2.6-5.8-9.5-8.5-15.7-9.8-13.2-2.8-34.5-4.7-46 8-17.4 19.1-19.1 38.2-60 28.7-24.5-5.7-34-3.7-37.7-1.1-4 2.8-9.4 2.8-12.8-.6-2.6-2.6-4.2-6.6-2.5-13.1 4.3-16.5 38.2-52.2 38.2-52.2s9.4-17.2 11.1-69.4c.4-11.3 3.9-22.4 10.6-31.5 6.6-9 17-17.4 33.1-18.2z" fill="#02cbce"/><g class="a Z"><g class="c"><path d="M598.8 386l9.8-50.5 75.1-3.7 10.9 53.7c.1.1-37.4 25.1-95.8.5z"/><path d="M706.5 250.5s19.7-2.6 19.7 11.7-24.6 25.4-24.6 25.4-.6 35.4-20.4 51.5c0 0-21.2 22.6-49.6 12.5-28.2-10-34.4-26.5-34.4-26.5s-7.9-11.4-6.4-37.1c0 0-26.1-3-28-25 0 0 1.9-17.4 20.4-12.5"/></g><path d="M703.9 274.5s-2.6-12.5 8.8-18.4m-127.6 18.1s3.1-13.9-10.2-17.6m74.6 10l5.9 11.5 2.6 4.7c1 1.6 2.5 4.9-.9 7l-9.4 5.7m-12.1 12.7s15.3 8.8 28.3 0" class="b"/></g><path d="M705.7 250.7c-24.2-42-87.2-44.4-87.2-44.4-2.4 5.6-5.6 11.9-10.1 18.6-8.1 12-17.2 20.3-24.3 25.7" class="c"/><path d="M662.4 243.8c-.3-.4-1-1.4-1-2.8 0-1.1.6-2.3 2-3.5 5.1-4.5 20 9.3 20 9.3.5.7.8 1.3.6 1.9-1.1 3.1-18.2-.1-21.6-4.9zm-35.2 0c.3-.4 1-1.4 1-2.8 0-1.1-.6-2.3-2-3.5-5.1-4.5-20 9.3-20 9.3-.5.7-.8 1.3-.6 1.9 1.1 3.1 18.2-.1 21.6-4.9z" fill="#252132"/><path d="M660.8 264.3s11.6-12.1 25.3.5m-77.9-1.3s11.6-12.1 25.3.5m-34.4-82.4s0 16.2 19.5 24.6" class="Z a b"/><path d="M369.2 577.8s23.9 69.6 57.8 107.1c17.6 19.5 51 9.7 63.4-13.4 6.4-11.9 14.2-25.9 23.1-40l-63.8-36.7-9.5 10.8-57.5-118.8c-1.5-3.2-2.5-6.6-2.7-10.1-.8-11.5-1.7-37.7 6.8-47.6 1.3-1.5.4-3.8-1.5-4.2-4-.9-11.6 2.5-18.5 14.5-1.1 1.9-3.9 1.7-4.8-.2l-17.5-37.5-2-3.9c-.6-1.2-1.5-2.3-2.7-3-1.6-.9-3.4-1.2-3 3.3.7 7.5 6.7 23.7 6.7 23.7s1.6 6.3-2.1 3.3c-1-.8-1.8-1.8-2.3-3-4.2-8.3-8.9-16.3-12.7-24.8-3-6.7-2.3-4.7-2.6-5.4-.1-.2-.3-.8-.8-1.6-.2-.3-.6-.8-1.2-1.3-.3-.2-1.4-1-1.9-.8-.9.3-1.2 3.9.1 8.6 2.6 9.7 9.5 26.1 11.6 31.2.2.5.1 1-.1 1.4-.5.8-1.6.7-2.1 0-1.1-1.6-3.4-4.6-6.2-9.2l-8-13.6c-.6-1-1.4-1.8-2.5-2.2-1.7-.6-3.7-.2-2.5 5.7.1.3.2.7.3 1l10.3 21.4c.7 1.5 1.3 3.1 1.7 4.7.5 1.9.6 3.6-1.1 1.9-1.3-1.2-1.7-1.8-2.4-3l-8.2-13.1c-.9-1.4-1.8-2.5-3.2-3.1-1.7-.7-3.3-.4-1.6 5.3 2.6 8.4 22 50.5 29.7 63.5 2.1 3.5 3.8 7.3 5.1 11.2l28.4 77.9z" class="Z a c"/><path d="M261.4 189.2l-35.9-42.7c-4.4-5.2-12.8-3.7-15.2 2.7l-19 52.4c-2.3 6.4 3.2 13 9.9 11.8l54.9-9.7c6.8-1.2 9.7-9.2 5.3-14.5z" fill="#0074e0"/><path d="M249.1 191.7L213.2 149c-4.4-5.2-12.8-3.7-15.2 2.7l-19 52.4c-2.3 6.4 3.2 13 9.9 11.8l54.9-9.7c6.8-1.2 9.7-9.3 5.3-14.5z" class="Z a b"/><use xlink:href="#B" fill="#00c9d1"/><use xlink:href="#B" x="15.2" y="-3.4" class="Z a b"/><circle cx="167.4" cy="679.2" r="26.7" fill="#b200d9"/><g class="a b"><circle cx="178.2" cy="689" r="26.7"/><circle transform="matrix(.2028 -.9792 .9792 .2028 334.4544 1593.7826)" cx="1146.1" cy="591.5" r="9.8"/><circle transform="matrix(.2028 -.9792 .9792 .2028 301.6092 1530.5465)" cx="1090.8" cy="580" r="9.8"/><circle transform="matrix(.2028 -.9792 .9792 .2028 269.4872 1468.9679)" cx="1036.9" cy="569" r="9.8"/><circle transform="matrix(.2028 -.9792 .9792 .2028 237.569 1408.0425)" cx="983.6" cy="558.1" r="9.8"/><circle transform="matrix(.2028 -.9792 .9792 .2028 284.182 1619.8943)" cx="1137" cy="635.4" r="9.8"/><circle transform="matrix(.2028 -.9792 .9792 .2028 251.3368 1556.6583)" cx="1081.7" cy="624" r="9.8"/><circle transform="matrix(.2028 -.9792 .9792 .2028 219.2149 1495.0797)" cx="1027.8" cy="612.9" r="9.8"/><circle transform="matrix(.2028 -.9792 .9792 .2028 187.2966 1434.1543)" cx="974.5" cy="602" r="9.8"/><circle transform="matrix(.2028 -.9792 .9792 .2028 233.9097 1646.0061)" cx="1127.9" cy="679.3" r="9.8"/><circle transform="matrix(.2028 -.9792 .9792 .2028 201.0645 1582.7701)" cx="1072.6" cy="667.9" r="9.8"/><circle transform="matrix(.2028 -.9792 .9792 .2028 168.9425 1521.1915)" cx="1018.7" cy="656.8" r="9.8"/><circle transform="matrix(.2028 -.9792 .9792 .2028 137.0243 1460.2661)" cx="965.4" cy="646" r="9.8"/><circle transform="matrix(.2028 -.9792 .9792 .2028 183.6373 1672.1179)" cx="1118.8" cy="723.3" r="9.8"/><circle transform="matrix(.2028 -.9792 .9792 .2028 150.7921 1608.882)" cx="1063.5" cy="711.8" r="9.8"/><circle transform="matrix(.2028 -.9792 .9792 .2028 118.6701 1547.3033)" cx="1009.6" cy="700.8" r="9.8"/><circle transform="matrix(.2028 -.9792 .9792 .2028 86.7519 1486.3778)" cx="956.3" cy="689.9" r="9.8"/></g><path d="M1052 144.1l-12.4-2.7c-2.3-.5-4.8.2-6.5 1.8l-9.3 8.7c-4.4 4.1-11.6 1.4-12.1-4.6l-1.2-12.7c-.2-2.4-1.6-4.5-3.7-5.6l-11.1-6.2c-5.2-2.9-4.9-10.6.6-13l11.7-5.1c2.2-1 3.8-2.9 4.2-5.3l2.4-12.5c1.1-5.9 8.5-7.9 12.5-3.4l8.5 9.5c1.6 1.8 3.9 2.7 6.3 2.4l12.6-1.6c6-.7 10.2 5.7 7.1 10.8l-6.4 11c-1.2 2.1-1.3 4.6-.3 6.7l5.4 11.5c2.4 5.6-2.4 11.5-8.3 10.3z" fill="#b200d9"/><path d="M1059.7 141.8l-12.4-2.7c-2.3-.5-4.8.2-6.5 1.8l-9.3 8.7c-4.4 4.1-11.6 1.4-12.1-4.6l-1.2-12.7c-.2-2.4-1.6-4.5-3.7-5.6l-11.1-6.2c-5.2-2.9-4.9-10.6.6-13l11.7-5.1c2.2-1 3.8-2.9 4.2-5.3l2.4-12.5c1.1-5.9 8.5-7.9 12.5-3.4l8.5 9.5c1.6 1.8 3.9 2.7 6.3 2.4l12.6-1.6c6-.7 10.2 5.7 7.1 10.8l-6.4 11c-1.2 2.1-1.3 4.6-.3 6.7l5.4 11.5c2.3 5.6-2.5 11.6-8.3 10.3z" class="Z a b"/><defs><ellipse id="A" cx="649.9" cy="461.5" rx="312.1" ry="307.8"/><path id="B" d="M1144.8 458.4l37.1-41.7c4.5-5.1 1.8-13.2-4.9-14.6l-54.7-11.2c-6.7-1.4-12.4 5-10.2 11.5l17.6 53c2.2 6.4 10.6 8.1 15.1 3z"/></defs><clipPath id="C"><use xlink:href="#A"/></clipPath><path d="M843.3 771.1l-28.9-144.8 52.1-24 38.7 166.9" class="Z a c d"/><path d="M596.5 383.9s43.6 17.1 101.4 0l1.8 16.5 56.3 4.5s64.5 1.8 75.3 55.6l40.9 140-57.8 25.9 37.1 200-384.2-.4 34.5-200.2-61.7-27.5L470 464.7s.1-.4.4-1.2c9.7-32 38.1-54.8 71.4-57.7l54.2-4.6.5-17.3z" fill="#2e233d" class="d"/><path d="M792.3 516l51 255.1M523.5 514.8l-52.1 267.5" class="d Z b" stroke="#fff"/><path d="M359.3 446.1s-6.3 13.1-.7 24.5" class="Z a c"/><path d="M682 388.8l.4 25.2m-34.6-22l.4 25.3M612 389.2l.4 25.2" stroke="#fff" class="b Z"/><path d="M440.2 605.6s4 5.9 9.1 21.4" class="Z a c"/></svg>